<svg width="132" height="40" viewBox="0 0 132 40" fill="none" xmlns="http://www.w3.org/2000/svg">
<g clip-path="url(#clip0_262_2317)">
<path d="M45.7484 20.2496C45.7102 19.3192 45.8588 18.3905 46.1854 17.5171C46.5121 16.6437 47.0104 15.8429 47.6517 15.1609C48.2929 14.4789 49.0644 13.9293 49.9215 13.5436C50.7787 13.158 51.7046 12.944 52.6458 12.9141H52.9382C56.576 12.9141 58.7229 15.0301 59.3578 17.5058L57.0967 18.2535C56.8935 17.3309 56.3618 16.5113 55.5984 15.9442C54.835 15.377 53.8909 15.1002 52.9382 15.1641C50.5844 15.1641 48.2235 16.864 48.2235 20.2919C48.2235 23.7199 50.5274 25.3563 52.9668 25.3563C53.9241 25.3822 54.8626 25.0898 55.632 24.5258C56.4014 23.9619 56.9574 23.159 57.2108 22.2457L59.4291 22.9511C59.0462 24.3443 58.1945 25.5668 57.0145 26.4169C55.8345 27.2671 54.3967 27.6941 52.9382 27.6275C51.0647 27.6615 49.2541 26.9584 47.9045 25.6728C46.555 24.3872 45.7768 22.6243 45.7412 20.7716C45.7341 20.6023 45.7412 20.426 45.7484 20.2496Z" fill="#FBFCFF"/>
<path d="M63.8298 27.3024H61.4902V12.8711H63.8298V18.5138C64.1694 18.1155 64.5966 17.7991 65.0787 17.5889C65.5608 17.3786 66.0851 17.28 66.6116 17.3006C69.0296 17.3006 70.178 19.0146 70.178 21.1518V27.3024H67.924V21.5609C67.9916 21.0715 67.8619 20.5754 67.5631 20.1796C67.2642 19.7838 66.82 19.5199 66.3263 19.4449C66.1864 19.4307 66.0454 19.4307 65.9054 19.4449C65.3644 19.4449 64.8455 19.6574 64.463 20.0357C64.0804 20.4141 63.8655 20.9272 63.8655 21.4622C63.8619 21.5209 63.8619 21.5798 63.8655 21.6385L63.8298 27.3024Z" fill="#FBFCFF"/>
<path d="M75.4277 21.7452L77.9385 21.3573C78.5091 21.2867 78.6517 20.9975 78.6517 20.6519C78.6517 19.8337 78.0954 19.1778 76.7972 19.1778C76.3069 19.1386 75.8208 19.2921 75.4443 19.605C75.0677 19.918 74.8311 20.3651 74.7858 20.8494V20.9552L72.6459 20.4826C72.8242 18.8039 74.3649 17.3086 76.7758 17.3086C79.8001 17.3086 80.9485 19.0014 80.9485 20.9764V25.7939C80.946 26.3159 80.9866 26.8372 81.0698 27.3527H78.9299C78.8528 26.9435 78.8217 26.5272 78.8372 26.1113C78.5124 26.6056 78.0622 27.007 77.5316 27.2756C77.0009 27.5442 76.4083 27.6705 75.8129 27.6419C74.9997 27.7083 74.193 27.453 73.5699 26.932C72.9467 26.411 72.558 25.6669 72.489 24.8628C72.489 24.8134 72.489 24.7641 72.489 24.7217C72.4533 22.9372 73.7444 21.978 75.4277 21.7452ZM78.666 23.304V22.8596L76.1053 23.2405C75.7577 23.2514 75.4278 23.3948 75.1846 23.6406C74.9413 23.8864 74.8035 24.2156 74.8 24.5595C74.8028 24.7299 74.8398 24.8981 74.909 25.0542C74.9781 25.2103 75.0781 25.3512 75.2029 25.4688C75.3277 25.5863 75.4749 25.6781 75.636 25.7387C75.7971 25.7994 75.9687 25.8277 76.141 25.8221H76.248C76.54 25.8523 76.8351 25.8251 77.1164 25.742C77.3977 25.659 77.6595 25.5217 77.887 25.3381C78.1144 25.1546 78.3028 24.9283 78.4414 24.6724C78.58 24.4165 78.666 24.136 78.6945 23.8471C78.7047 23.6653 78.6927 23.483 78.6589 23.304H78.666Z" fill="#FBFCFF"/>
<path d="M84.9288 12.6743C85.1299 12.6715 85.3295 12.708 85.5163 12.7817C85.703 12.8554 85.8732 12.9649 86.017 13.1039C86.1608 13.2428 86.2755 13.4085 86.3544 13.5914C86.4332 13.7743 86.4748 13.9708 86.4767 14.1696C86.4766 14.4672 86.3876 14.7582 86.2208 15.0059C86.054 15.2537 85.8169 15.4471 85.5392 15.562C85.2615 15.6768 84.9557 15.7079 84.6602 15.6514C84.3647 15.5948 84.0927 15.4532 83.8784 15.2442C83.6641 15.0352 83.5171 14.7682 83.4558 14.4768C83.3945 14.1854 83.4217 13.8826 83.534 13.6065C83.6462 13.3303 83.8385 13.0931 84.0867 12.9248C84.3349 12.7564 84.6279 12.6643 84.9288 12.6602V12.6743ZM83.7876 27.3454V17.5976H86.1272V27.3031L83.7876 27.3454Z" fill="#FBFCFF"/>
<path d="M91.4555 27.302H89.123V17.5965H91.3984V18.8873C91.6951 18.3916 92.1211 17.984 92.6319 17.7073C93.1427 17.4305 93.7194 17.2948 94.3015 17.3143C96.6981 17.3143 97.8679 19.0283 97.8679 21.1655V27.302H95.5354V21.5605C95.5354 20.3685 94.9862 19.4022 93.5169 19.4022C93.2452 19.404 92.9766 19.4587 92.7263 19.5633C92.4761 19.6678 92.2491 19.82 92.0584 20.0112C91.8676 20.2025 91.7168 20.429 91.6146 20.6779C91.5124 20.9268 91.4607 21.1931 91.4626 21.4618C91.4626 21.5394 91.4626 21.6169 91.4626 21.6945L91.4555 27.302Z" fill="#FBFCFF"/>
<path d="M100.691 27.3024V12.8711H103.031V27.3024H100.691Z" fill="#FBFCFF"/>
<path d="M107.204 12.6738C107.505 12.6725 107.799 12.7596 108.05 12.9241C108.301 13.0886 108.497 13.3232 108.613 13.598C108.729 13.8728 108.76 14.1755 108.701 14.4676C108.643 14.7597 108.498 15.028 108.285 15.2386C108.072 15.4491 107.801 15.5923 107.505 15.6501C107.21 15.7078 106.904 15.6775 106.626 15.5629C106.348 15.4483 106.111 15.2546 105.945 15.0065C105.778 14.7583 105.69 14.4669 105.691 14.1692C105.695 13.7737 105.856 13.3955 106.138 13.1159C106.421 12.8362 106.804 12.6775 107.204 12.6738ZM106.055 27.345V17.5971H108.373V27.3027L106.055 27.345Z" fill="#FBFCFF"/>
<path d="M113.738 27.3038H111.398V17.5983H113.674V18.8891C113.971 18.3939 114.397 17.9868 114.908 17.7101C115.419 17.4334 115.995 17.2974 116.577 17.3162C118.973 17.3162 120.143 19.0301 120.143 21.1673V27.3038H117.804V21.5623C117.871 21.0729 117.742 20.5768 117.443 20.181C117.144 19.7852 116.7 19.5213 116.206 19.4463C116.064 19.4322 115.92 19.4322 115.778 19.4463C115.233 19.4519 114.712 19.6698 114.329 20.0528C113.946 20.4358 113.731 20.9529 113.731 21.4918C113.724 21.5739 113.724 21.6565 113.731 21.7387L113.738 27.3038Z" fill="#FBFCFF"/>
<path d="M128.124 21.6949L132.24 27.3377H129.386L126.533 23.3384L125.328 24.5939V27.3024H123.01V12.8711H125.328V21.5186L129.094 17.5969H132.197L128.124 21.6949Z" fill="#FBFCFF"/>
<path d="M18.0514 8.96412L28.1657 14.7056V26.245L18.0799 32.0218L7.97272 26.2944V14.762L18.0514 8.96412ZM18.0514 0.5L14.3423 2.61603L4.24226 8.41395L0.533203 10.53V30.5406L4.24226 32.6566L14.3566 38.3981L18.0656 40.5141L21.7747 38.3981L31.8534 32.6143L35.5624 30.4982V10.4594L31.8534 8.34341L21.7462 2.61603L18.0371 0.5H18.0514Z" fill="#FBFCFF"/>
</g>
<defs>
<clipPath id="clip0_262_2317">
<rect width="131" height="40" fill="white" transform="translate(0.886719)"/>
</clipPath>
</defs>
</svg>
