<svg width="19" height="14" viewBox="0 0 19 14" fill="none" xmlns="http://www.w3.org/2000/svg">
<g id="discord-mark-white 1" clip-path="url(#clip0_374_431)">
<g id="&#229;&#155;&#190;&#229;&#177;&#130; 2">
<g id="Discord Logos">
<g id="Discord Logo - Large - White">
<path id="Vector" d="M15.8181 1.5019C14.6354 0.960467 13.387 0.576353 12.1045 0.359375C11.929 0.673093 11.7702 0.995868 11.6288 1.32635C10.2628 1.1205 8.87358 1.1205 7.50753 1.32635C7.36604 0.995902 7.20726 0.673131 7.03184 0.359375C5.74857 0.578185 4.49927 0.963211 3.31546 1.50473C0.965297 4.98187 0.328204 8.37265 0.64675 11.7153C2.02307 12.7322 3.56356 13.5055 5.20126 14.0018C5.57002 13.5058 5.89633 12.9796 6.17672 12.4288C5.64416 12.2299 5.13014 11.9845 4.64061 11.6955C4.76945 11.602 4.89545 11.5058 5.01721 11.4123C6.4416 12.0822 7.99626 12.4295 9.5703 12.4295C11.1443 12.4295 12.699 12.0822 14.1234 11.4123C14.2466 11.5128 14.3726 11.6091 14.5 11.6955C14.0095 11.985 13.4946 12.2309 12.961 12.4303C13.2411 12.9808 13.5674 13.5065 13.9365 14.0018C15.5756 13.5075 17.1173 12.7345 18.4938 11.7167C18.8676 7.84032 17.8553 4.48069 15.8181 1.5019ZM6.58021 9.65958C5.69253 9.65958 4.95916 8.85401 4.95916 7.86297C4.95916 6.87193 5.66704 6.05927 6.57738 6.05927C7.48771 6.05927 8.21541 6.87193 8.19984 7.86297C8.18427 8.85401 7.48488 9.65958 6.58021 9.65958ZM12.5604 9.65958C11.6713 9.65958 10.9408 8.85401 10.9408 7.86297C10.9408 6.87193 11.6486 6.05927 12.5604 6.05927C13.4721 6.05927 14.1942 6.87193 14.1786 7.86297C14.163 8.85401 13.4651 9.65958 12.5604 9.65958Z" fill="#FBFCFF"/>
</g>
</g>
</g>
</g>
<defs>
<clipPath id="clip0_374_431">
<rect width="18" height="13.6424" fill="white" transform="translate(0.570312 0.358398)"/>
</clipPath>
</defs>
</svg>
