<svg width="18" height="18" viewBox="0 0 18 18" fill="none" xmlns="http://www.w3.org/2000/svg">
<g id="github-mark-white 1" clip-path="url(#clip0_374_425)">
<path id="Vector" fill-rule="evenodd" clip-rule="evenodd" d="M8.97318 0.183594C4.01124 0.183594 0 4.2244 0 9.22343C0 13.2194 2.57014 16.6019 6.13561 17.7991C6.58139 17.8891 6.74467 17.6046 6.74467 17.3653C6.74467 17.1557 6.72998 16.4374 6.72998 15.6889C4.23386 16.2278 3.71406 14.6113 3.71406 14.6113C3.31292 13.5636 2.71855 13.2944 2.71855 13.2944C1.90157 12.7406 2.77806 12.7406 2.77806 12.7406C3.68431 12.8005 4.15984 13.6685 4.15984 13.6685C4.96194 15.0453 6.25445 14.6563 6.77443 14.4168C6.84863 13.8331 7.08649 13.429 7.33904 13.2045C5.3482 12.995 3.25359 12.2168 3.25359 8.74441C3.25359 7.75662 3.60992 6.94846 4.17453 6.31993C4.08545 6.09548 3.77339 5.16738 4.2638 3.9252C4.2638 3.9252 5.02145 3.68569 6.72979 4.85311C7.4612 4.65524 8.21548 4.55457 8.97318 4.55373C9.73083 4.55373 10.5032 4.6586 11.2164 4.85311C12.9249 3.68569 13.6826 3.9252 13.6826 3.9252C14.173 5.16738 13.8607 6.09548 13.7717 6.31993C14.3511 6.94846 14.6928 7.75662 14.6928 8.74441C14.6928 12.2168 12.5982 12.9799 10.5924 13.2045C10.9194 13.4889 11.2015 14.0276 11.2015 14.8807C11.2015 16.093 11.1868 17.0659 11.1868 17.3651C11.1868 17.6046 11.3503 17.8891 11.7959 17.7993C15.3613 16.6018 17.9315 13.2194 17.9315 9.22343C17.9462 4.2244 13.9202 0.183594 8.97318 0.183594Z" fill="#FBFCFF"/>
</g>
<defs>
<clipPath id="clip0_374_425">
<rect width="18" height="17.6326" fill="white" transform="translate(0 0.183594)"/>
</clipPath>
</defs>
</svg>
