<svg width="107" height="40" viewBox="0 0 107 40" fill="none" xmlns="http://www.w3.org/2000/svg">
<g clip-path="url(#clip0_262_2363)">
<path d="M54.2805 31.2652C53.8794 31.3359 53.4727 31.3703 53.0655 31.3679C52.1986 31.3679 51.5885 31.2083 51.2351 30.8892C50.8818 30.57 50.7051 30.0339 50.7051 29.2808V10.362C50.8873 10.3156 51.178 10.2582 51.5772 10.1898C51.9673 10.1226 52.3624 10.0885 52.7582 10.0879C53.5787 10.0879 54.183 10.2361 54.5712 10.5326C54.9593 10.8291 55.1526 11.3766 55.1509 12.175V18.9149H63.7022V10.362C63.8844 10.3156 64.1753 10.2582 64.5751 10.1898C64.9649 10.1226 65.3597 10.0885 65.7553 10.0879C66.5763 10.0879 67.1806 10.2417 67.5682 10.5492C67.9559 10.8567 68.1491 11.4089 68.148 12.2056V31.0888C67.9426 31.1343 67.6511 31.1923 67.2751 31.2602C66.8743 31.3309 66.4679 31.3653 66.0609 31.3629C65.1935 31.3629 64.5834 31.2034 64.2306 30.8842C63.8777 30.5651 63.7008 30.029 63.6997 29.2758V22.468H55.1492V31.0938C54.943 31.141 54.6532 31.1973 54.2805 31.2652Z" fill="#FBFCFF"/>
<path d="M87.5146 23.0191C87.5146 24.3442 87.315 25.5363 86.9158 26.5953C86.5458 27.6105 85.9691 28.5377 85.2221 29.3185C84.4804 30.0791 83.5816 30.6687 82.5884 31.0461C81.5614 31.4442 80.4094 31.6438 79.1323 31.6449C77.8552 31.646 76.7034 31.4464 75.677 31.0461C74.6866 30.6706 73.7882 30.0872 73.0425 29.335C72.2935 28.5639 71.7163 27.6429 71.3488 26.6326C70.9496 25.5719 70.75 24.3685 70.75 23.0224C70.75 21.7006 70.9496 20.5091 71.3488 19.4479C71.7181 18.4342 72.3017 17.5121 73.0599 16.7446C73.8139 15.9953 74.7168 15.4127 75.7101 15.0343C76.7371 14.6351 77.8776 14.4355 79.1315 14.4355C80.3854 14.4355 81.5258 14.6351 82.5528 15.0343C83.5493 15.4147 84.4529 16.0038 85.2031 16.762C85.9584 17.538 86.5412 18.4649 86.9133 19.4818C87.3131 20.5408 87.5135 21.7199 87.5146 23.0191ZM79.1323 17.8536C77.901 17.8536 76.9318 18.3038 76.2245 19.2044C75.5172 20.1049 75.1635 21.3765 75.1635 23.0191C75.1635 24.6849 75.5114 25.9623 76.2071 26.8512C76.9028 27.7402 77.8778 28.1849 79.1323 28.1855C80.3862 28.1855 81.3613 27.7349 82.0575 26.8338C82.7538 25.9327 83.1016 24.6612 83.1011 23.0191C83.1011 21.3776 82.7474 20.106 82.0401 19.2044C81.3329 18.3027 80.3636 17.8525 79.1323 17.8536Z" fill="#FBFCFF"/>
<path d="M97.9826 31.6067C97.3674 31.6114 96.7536 31.5484 96.1522 31.4187C95.6335 31.3053 95.1245 31.151 94.63 30.9574V37.2518C94.4246 37.2971 94.151 37.3542 93.8093 37.4232C93.427 37.4949 93.0387 37.5293 92.6498 37.5259C91.8514 37.5259 91.2584 37.3777 90.8708 37.0812C90.4832 36.7847 90.2899 36.2601 90.291 35.5076V18.1616C90.291 17.6144 90.3992 17.1696 90.6157 16.8273C90.8321 16.485 91.18 16.1656 91.6592 15.8691C92.3218 15.4826 93.1431 15.1461 94.1231 14.8595C95.1032 14.5729 96.2094 14.4305 97.4418 14.4321C98.6178 14.4212 99.7887 14.5888 100.914 14.9291C101.933 15.2369 102.873 15.7622 103.668 16.4687C104.441 17.1644 105.046 18.0478 105.481 19.119C105.917 20.1901 106.134 21.4675 106.131 22.9511C106.131 24.3867 105.926 25.6411 105.516 26.7145C105.106 27.7878 104.541 28.6887 103.822 29.4169C103.1 30.1494 102.223 30.7106 101.255 31.0593C100.205 31.4339 99.0972 31.6193 97.9826 31.6067ZM97.3333 28.1514C98.7015 28.1514 99.7735 27.7293 100.549 26.8851C101.325 26.0409 101.711 24.7295 101.709 22.9511C101.709 21.1042 101.31 19.7929 100.511 19.0171C99.7127 18.2413 98.6866 17.8535 97.4327 17.8535C96.8813 17.8439 96.3321 17.9247 95.8069 18.0928C95.3893 18.2317 94.9833 18.4034 94.5927 18.6063V27.3986C94.9717 27.6335 95.3799 27.8176 95.8069 27.946C96.3026 28.0901 96.8171 28.1593 97.3333 28.1514Z" fill="#FBFCFF"/>
<path d="M39.6764 13.2516L31.2602 1.00815C29.9384 -0.910811 26.9494 0.107886 27.0471 2.43929C27.1365 4.56448 27.9308 6.81389 29.8315 9.57431C29.8324 9.57584 29.8328 9.57762 29.8326 9.57938C29.8324 9.58113 29.8316 9.58278 29.8304 9.58408C29.8292 9.58537 29.8276 9.58625 29.8259 9.58658C29.8242 9.58691 29.8224 9.58667 29.8208 9.58591C29.0431 9.00616 17.3198 0.202302 3.38432 4.88996H3.36858C1.8306 5.4664 1.04545 6.72445 1.43471 8.19949C1.79498 9.5652 3.19549 10.3851 4.58771 10.1541C7.54773 9.66127 10.4854 9.42689 13.3742 9.68032C16.263 9.93375 19.0888 10.6742 21.72 11.967C24.3513 13.2598 26.7348 15.0894 28.9255 17.1847C31.3894 19.5393 34.4463 24.5607 34.4463 24.5607C34.6255 24.879 34.9113 25.1237 35.2533 25.2517C35.5953 25.3798 35.9715 25.3829 36.3156 25.2606C37.1438 24.9641 37.5297 24.0092 37.2183 23.1901C36.5689 21.4779 35.7739 19.8246 34.8422 18.2481C34.8408 18.2466 34.8401 18.2447 34.8401 18.2427C34.84 18.2407 34.8408 18.2387 34.8421 18.2372C34.8434 18.2356 34.8452 18.2347 34.8472 18.2344C34.8492 18.2341 34.8513 18.2346 34.853 18.2357C35.8833 18.6233 36.8365 19.1062 37.9645 18.842C38.8847 18.6258 39.6922 17.9997 40.0674 17.1234C40.339 16.4985 40.4457 15.8144 40.3772 15.1365C40.3088 14.4586 40.0675 13.8095 39.6764 13.2516Z" fill="#FBFCFF"/>
<path d="M0.834728 26.6888L9.2982 39.001C10.6233 40.9257 13.5569 39.8706 13.4666 37.5367C13.3838 35.4016 12.5912 33.1431 10.6813 30.3686C10.6755 30.3603 10.6813 30.3495 10.6912 30.3553C11.4706 30.9351 23.1972 39.7381 37.1269 35.0513C37.1324 35.0516 37.1379 35.0516 37.1434 35.0513C38.6814 34.4765 39.4624 33.2209 39.0765 31.7442C38.717 30.3793 37.3165 29.5594 35.9251 29.7913C32.9643 30.2882 30.0275 30.5176 27.1378 30.2642C24.2482 30.0108 21.4232 29.2704 18.7928 27.9784C16.1624 26.6864 13.778 24.8552 11.5874 22.7606C9.12427 20.406 6.06653 15.3846 6.06653 15.3846C5.8811 15.0539 5.58076 14.8028 5.22247 14.6788C4.86418 14.5549 4.47286 14.5667 4.12272 14.7121C3.33426 15.0434 2.99718 15.9751 3.29948 16.7735C3.94783 18.4801 4.74083 20.1282 5.66981 21.6997C5.67076 21.7013 5.67119 21.7032 5.67105 21.705C5.67091 21.7069 5.6702 21.7086 5.66903 21.7101C5.66786 21.7115 5.66628 21.7126 5.66449 21.7131C5.66271 21.7136 5.66081 21.7136 5.65905 21.713C4.62875 21.3254 3.67134 20.8425 2.54746 21.1067C1.62732 21.3187 0.818991 21.9482 0.447125 22.8219C0.175942 23.4459 0.0691845 24.1289 0.137039 24.8059C0.204894 25.4828 0.445097 26.1311 0.834728 26.6888Z" fill="#FBFCFF"/>
</g>
<defs>
<clipPath id="clip0_262_2363">
<rect width="106.011" height="40" fill="white" transform="translate(0.115234)"/>
</clipPath>
</defs>
</svg>
