<svg width="319" height="28" viewBox="0 0 319 28" fill="none" xmlns="http://www.w3.org/2000/svg">
<path d="M67.8382 18.6564C68.247 18.6564 68.5806 18.3416 68.5806 17.9534V8.3926C68.5806 8.00423 68.247 7.68945 67.8382 7.68945H67.0354C66.6249 7.68945 66.293 8.00423 66.293 8.3926V17.9534C66.293 18.3416 66.6249 18.6564 67.0354 18.6564H67.8382Z" fill="#FBFCFF"/>
<path d="M85.3283 18.6564C85.7388 18.6564 86.0707 18.3416 86.0707 17.9534V8.3926C86.0707 8.00423 85.7388 7.68945 85.3283 7.68945H84.5598C84.1494 7.68945 83.8174 8.00423 83.8174 8.3926V14.9441L79.2159 8.01813C79.0802 7.81357 78.8431 7.68945 78.588 7.68945H76.9299C76.5195 7.68945 76.1875 8.00423 76.1875 8.3926V17.9534C76.1875 18.3416 76.5195 18.6564 76.9299 18.6564H77.7001C78.1089 18.6564 78.4424 18.3416 78.4424 17.9534V10.8758L83.4838 18.3324C83.6195 18.5344 83.855 18.6564 84.1085 18.6564H85.3283Z" fill="#FBFCFF"/>
<path d="M101.448 9.71581C101.858 9.71581 102.19 9.40103 102.19 9.01267V8.3926C102.19 8.00423 101.858 7.68945 101.448 7.68945H93.3439C92.9335 7.68945 92.6016 8.00423 92.6016 8.3926V9.01267C92.6016 9.40103 92.9335 9.71581 93.3439 9.71581H96.2595V17.9534C96.2595 18.3416 96.5931 18.6564 97.0035 18.6564H97.7884C98.1989 18.6564 98.5308 18.3416 98.5308 17.9534V9.71581H101.448Z" fill="#FBFCFF"/>
<path d="M115.22 18.6564C115.629 18.6564 115.963 18.3416 115.963 17.9534V17.3487C115.963 16.9603 115.629 16.6455 115.22 16.6455H110.962V14.1088H114.746C115.157 14.1088 115.489 13.794 115.489 13.4057V12.9092C115.489 12.521 115.157 12.2062 114.746 12.2062H110.962V9.70028H115.22C115.629 9.70028 115.963 9.3855 115.963 8.99714V8.3926C115.963 8.00423 115.629 7.68945 115.22 7.68945H109.451C109.041 7.68945 108.709 8.00423 108.709 8.3926V17.9534C108.709 18.3416 109.041 18.6564 109.451 18.6564H115.22Z" fill="#FBFCFF"/>
<path d="M128.585 18.2724C128.712 18.508 128.968 18.6564 129.247 18.6564H130.079C130.639 18.6564 130.997 18.0952 130.737 17.627L128.824 14.1706C130.343 13.753 131.291 12.5928 131.291 11.0616C131.291 9.15886 129.854 7.68945 127.599 7.68945H123.817C123.406 7.68945 123.074 8.00423 123.074 8.3926V17.9534C123.074 18.3416 123.406 18.6564 123.817 18.6564H124.602C125.012 18.6564 125.344 18.3416 125.344 17.9534V14.4336H126.521L128.585 18.2724ZM125.344 12.5928V9.54559H127.174C128.318 9.54559 128.987 10.1488 128.987 11.077C128.987 11.9742 128.318 12.5928 127.174 12.5928H125.344Z" fill="#FBFCFF"/>
<path d="M147.403 18.6564C147.813 18.6564 148.145 18.3416 148.145 17.9534V8.3926C148.145 8.00423 147.813 7.68945 147.403 7.68945H146.634C146.224 7.68945 145.89 8.00423 145.89 8.3926V14.9441L141.29 8.01813C141.154 7.81357 140.916 7.68945 140.661 7.68945H139.004C138.594 7.68945 138.262 8.00423 138.262 8.3926V17.9534C138.262 18.3416 138.594 18.6564 139.004 18.6564H139.773C140.183 18.6564 140.517 18.3416 140.517 17.9534V10.8758L145.558 18.3324C145.694 18.5344 145.929 18.6564 146.183 18.6564H147.403Z" fill="#FBFCFF"/>
<path d="M162.277 18.6564C162.688 18.6564 163.021 18.3416 163.021 17.9534V17.3487C163.021 16.9603 162.688 16.6455 162.277 16.6455H158.021V14.1088H161.805C162.214 14.1088 162.547 13.794 162.547 13.4057V12.9092C162.547 12.521 162.214 12.2062 161.805 12.2062H158.021V9.70028H162.277C162.688 9.70028 163.021 9.3855 163.021 8.99714V8.3926C163.021 8.00423 162.688 7.68945 162.277 7.68945H156.51C156.1 7.68945 155.768 8.00423 155.768 8.3926V17.9534C155.768 18.3416 156.1 18.6564 156.51 18.6564H162.277Z" fill="#FBFCFF"/>
<path d="M177.881 9.71581C178.29 9.71581 178.624 9.40103 178.624 9.01267V8.3926C178.624 8.00423 178.29 7.68945 177.881 7.68945H169.776C169.365 7.68945 169.033 8.00423 169.033 8.3926V9.01267C169.033 9.40103 169.365 9.71581 169.776 9.71581H172.693V17.9534C172.693 18.3416 173.025 18.6564 173.435 18.6564H174.222C174.631 18.6564 174.964 18.3416 174.964 17.9534V9.71581H177.881Z" fill="#FBFCFF"/>
<path d="M198.718 18.888C201.57 18.888 203.202 17.3182 203.858 15.7948C204.007 15.448 203.781 15.0752 203.402 14.9668L202.69 14.7632C202.295 14.6497 201.882 14.8704 201.685 15.2145C201.209 16.0378 200.28 16.7998 198.718 16.7998C196.856 16.7998 195.124 15.516 195.124 13.1803C195.124 10.6899 196.954 9.5143 198.686 9.5143C200.254 9.5143 201.145 10.2199 201.593 11.0293C201.791 11.3881 202.216 11.6234 202.625 11.5016L203.333 11.29C203.706 11.1786 203.93 10.81 203.784 10.466C203.13 8.90338 201.513 7.45703 198.686 7.45703C195.582 7.45703 192.789 9.68452 192.789 13.1803C192.789 16.6761 195.484 18.888 198.718 18.888Z" fill="#FBFCFF"/>
<path d="M212.376 13.1648C212.376 10.6899 214.206 9.5143 215.986 9.5143C217.783 9.5143 219.613 10.6899 219.613 13.1648C219.613 15.6398 217.783 16.8154 215.986 16.8154C214.206 16.8154 212.376 15.6398 212.376 13.1648ZM210.039 13.1803C210.039 16.7071 212.85 18.888 215.986 18.888C219.139 18.888 221.95 16.7071 221.95 13.1803C221.95 9.63808 219.139 7.45703 215.986 7.45703C212.85 7.45703 210.039 9.63808 210.039 13.1803Z" fill="#FBFCFF"/>
<path d="M241.05 18.6564C241.459 18.6564 241.792 18.3416 241.792 17.9534V8.3926C241.792 8.00423 241.459 7.68945 241.05 7.68945H239.22C238.918 7.68945 238.646 7.86279 238.533 8.12785L235.323 15.6091L232.033 8.12246C231.917 7.86033 231.647 7.68945 231.348 7.68945H229.612C229.201 7.68945 228.869 8.00423 228.869 8.3926V17.9534C228.869 18.3416 229.201 18.6564 229.612 18.6564H230.284C230.694 18.6564 231.026 18.3416 231.026 17.9534V11.0305L234.169 18.2222C234.283 18.485 234.555 18.6564 234.856 18.6564H235.739C236.041 18.6564 236.313 18.4842 236.427 18.2202L239.57 10.9687V17.9534C239.57 18.3416 239.902 18.6564 240.312 18.6564H241.05Z" fill="#FBFCFF"/>
<path d="M251.678 12.6857V9.54559H253.457C254.585 9.54559 255.27 10.1488 255.27 11.1234C255.27 12.0669 254.585 12.6857 253.457 12.6857H251.678ZM253.735 14.5265C256.022 14.5265 257.541 13.1033 257.541 11.1079C257.541 9.12795 256.022 7.68945 253.735 7.68945H250.149C249.738 7.68945 249.406 8.00423 249.406 8.3926V17.9534C249.406 18.3416 249.738 18.6564 250.149 18.6564H250.917C251.328 18.6564 251.661 18.3416 251.661 17.9534V14.5265H253.735Z" fill="#FBFCFF"/>
<path d="M268.544 18.9039C271.026 18.9039 273.003 17.4654 273.003 14.7739V8.3926C273.003 8.00423 272.671 7.68945 272.261 7.68945H271.491C271.082 7.68945 270.748 8.00423 270.748 8.3926V14.6192C270.748 16.0578 269.916 16.8158 268.544 16.8158C267.203 16.8158 266.355 16.0578 266.355 14.6192V8.3926C266.355 8.00423 266.023 7.68945 265.612 7.68945H264.842C264.432 7.68945 264.1 8.00423 264.1 8.3926V14.7739C264.1 17.4654 266.077 18.9039 268.544 18.9039Z" fill="#FBFCFF"/>
<path d="M288.272 9.71581C288.683 9.71581 289.015 9.40103 289.015 9.01267V8.3926C289.015 8.00423 288.683 7.68945 288.272 7.68945H280.168C279.758 7.68945 279.426 8.00423 279.426 8.3926V9.01267C279.426 9.40103 279.758 9.71581 280.168 9.71581H283.085V17.9534C283.085 18.3416 283.417 18.6564 283.828 18.6564H284.613C285.023 18.6564 285.355 18.3416 285.355 17.9534V9.71581H288.272Z" fill="#FBFCFF"/>
<path d="M302.047 18.6564C302.455 18.6564 302.789 18.3416 302.789 17.9534V17.3487C302.789 16.9603 302.455 16.6455 302.047 16.6455H297.79V14.1088H301.572C301.983 14.1088 302.315 13.794 302.315 13.4057V12.9092C302.315 12.521 301.983 12.2062 301.572 12.2062H297.79V9.70028H302.047C302.455 9.70028 302.789 9.3855 302.789 8.99714V8.3926C302.789 8.00423 302.455 7.68945 302.047 7.68945H296.278C295.867 7.68945 295.535 8.00423 295.535 8.3926V17.9534C295.535 18.3416 295.867 18.6564 296.278 18.6564H302.047Z" fill="#FBFCFF"/>
<path d="M315.409 18.2724C315.537 18.508 315.792 18.6564 316.071 18.6564H316.904C317.463 18.6564 317.821 18.0952 317.561 17.627L315.648 14.1706C317.169 13.753 318.115 12.5928 318.115 11.0616C318.115 9.15886 316.678 7.68945 314.423 7.68945H309.898V17.9534C309.898 18.3416 310.23 18.6564 310.641 18.6564H311.426C311.836 18.6564 312.168 18.3416 312.168 17.9534V14.4336H313.345L315.409 18.2724ZM312.168 12.5928V9.54559H313.998C315.143 9.54559 315.811 10.1488 315.811 11.077C315.811 11.9742 315.143 12.5928 313.998 12.5928H312.168Z" fill="#FBFCFF"/>
<path opacity="0.56" d="M42.8344 0.917969C39.7373 0.917969 36.3606 2.50509 32.7926 5.63132C31.0985 7.11249 29.6366 8.69964 28.541 9.96938C28.541 9.96938 28.541 9.96938 28.5508 9.97903V9.96938C28.5508 9.96938 30.2809 11.8546 32.1957 13.8746C33.2243 12.6531 34.7058 10.9889 36.408 9.48847C39.5836 6.7086 41.6505 6.12188 42.8344 6.12188C47.2871 6.12188 50.9041 9.65199 50.9041 13.9901C50.9041 18.2993 47.2772 21.8294 42.8344 21.8584C42.6316 21.8584 42.3716 21.8294 42.0446 21.7622C43.3446 22.32 44.7378 22.7241 46.0655 22.7241C54.222 22.7241 55.8196 17.4047 55.9259 17.0201C56.1662 16.0485 56.2905 15.0289 56.2905 13.9804C56.2905 6.78545 50.2501 0.917969 42.8344 0.917969Z" fill="#FBFCFF"/>
<path opacity="0.4" d="M14.3435 27.0814C17.4408 27.0814 20.817 25.4942 24.3863 22.368C26.0788 20.8867 27.5406 19.2995 28.6379 18.03C28.6379 18.03 28.6378 18.03 28.628 18.0203V18.03C28.628 18.03 26.8964 16.1446 24.9815 14.1246C23.953 15.3462 22.4715 17.0102 20.7689 18.5109C17.5946 21.2907 15.5266 21.8775 14.3435 21.8775C9.89002 21.8678 6.27326 18.3377 6.27326 13.9996C6.27326 9.69036 9.89967 6.16009 14.3435 6.13131C14.5455 6.13131 14.8053 6.16009 15.1323 6.22746C13.8337 5.66969 12.439 5.26562 11.1115 5.26562C2.95477 5.26562 1.36764 10.5848 1.25219 10.9599C1.01182 11.9411 0.886719 12.9511 0.886719 13.9996C0.886719 21.2137 6.92735 27.0814 14.3435 27.0814Z" fill="#FBFCFF"/>
<path d="M46.0436 22.6086C41.8689 22.5028 37.5307 19.2131 36.6461 18.3955C34.3568 16.2794 29.0751 10.5561 28.6613 10.104C24.7957 5.76589 19.5527 0.917969 14.3394 0.917969H14.3297H14.3201C7.99099 0.94683 2.67166 5.2369 1.24805 10.9602C1.35384 10.585 3.44119 5.15988 11.0979 5.35235C15.2724 5.45815 19.6298 8.79579 20.5244 9.61339C22.8138 11.7297 28.0939 17.4529 28.5076 17.9049C32.3749 22.2335 37.6174 27.0814 42.8304 27.0814H42.8402H42.8501C49.1783 27.0525 54.5075 22.7625 55.9219 17.0392C55.8058 17.4144 53.7095 22.7914 46.0436 22.6086Z" fill="#FBFCFF"/>
</svg>
