<svg width="137" height="40" viewBox="0 0 137 40" fill="none" xmlns="http://www.w3.org/2000/svg">
<g clip-path="url(#clip0_262_2330)">
<path d="M7.74599 28.998C5.76758 28.998 4.12973 28.5223 2.83782 27.5656C1.54591 26.6142 0.929688 25.2467 0.929688 23.544C0.929688 23.2034 0.999959 22.7277 1.06482 22.1818C1.27023 20.9548 1.61078 19.5223 2.02159 17.8196C3.17836 13.2467 6.11353 10.9277 10.8866 10.9277C12.1839 10.9277 13.3406 11.1331 14.3623 11.6088C15.3839 12.0196 16.2055 12.6304 16.8164 13.5169C17.4326 14.3331 17.7029 15.3602 17.7029 16.5169C17.7029 16.8575 17.6326 17.3331 17.5677 17.8142C17.2974 19.3115 17.0218 20.744 16.6812 22.1764C16.065 24.4953 15.0434 26.198 13.6109 27.2899C12.1785 28.3818 10.2001 28.998 7.81626 28.998H7.74599ZM8.08653 25.3818C9.0433 25.3818 9.85952 25.1115 10.4703 24.5656C11.1514 24.0196 11.6271 23.2034 11.9028 22.0412C12.3136 20.4737 12.5839 19.1115 12.7893 17.9494C12.8596 17.6088 12.8596 17.2683 12.8596 16.8575C12.8596 15.3602 12.0433 14.6088 10.4757 14.6088C9.51898 14.6088 8.70275 14.8791 8.02166 15.425C7.34057 15.971 6.86489 16.7872 6.58921 17.9494C6.31894 19.0412 5.97299 20.4034 5.70272 22.0412C5.63245 22.3818 5.63245 22.7277 5.63245 23.0683C5.63245 24.6358 6.45408 25.3818 8.08653 25.3818Z" fill="#FBFCFF"/>
<path d="M20.2266 28.7923C20.0212 28.7923 19.886 28.722 19.8158 28.5869C19.7455 28.4517 19.6806 28.3166 19.7455 28.1112L23.2212 11.8139C23.2915 11.6085 23.3563 11.4734 23.4915 11.3382C23.6266 11.2031 23.832 11.1328 23.9672 11.1328H30.7186C32.5619 11.1328 34.0592 11.5436 35.2159 12.2896C36.3727 13.0355 36.9295 14.2031 36.9295 15.6355C36.9295 16.0463 36.8592 16.4517 36.7943 16.9328C36.3835 18.8409 35.497 20.2734 34.27 21.1598C32.9727 22.0463 31.2699 22.522 29.0861 22.522H25.6753L24.5185 27.9761C24.5185 28.1815 24.3834 28.3166 24.2482 28.4517C24.1131 28.5869 23.9077 28.6571 23.7726 28.6571H20.3617L20.2266 28.7923ZM29.1564 19.2463C29.8375 19.2463 30.4537 19.0409 30.9997 18.7004C31.5456 18.2896 31.8862 17.7436 32.0916 17.0625C32.1618 16.7923 32.1618 16.5166 32.1618 16.3112C32.1618 15.8355 32.0267 15.495 31.751 15.2193C31.4754 14.9436 30.9997 14.8085 30.2537 14.8085H27.2537L26.2969 19.3058H29.2267L29.1564 19.2463Z" fill="#FBFCFF"/>
<path d="M42.5901 28.7923C42.3847 28.7923 42.2495 28.722 42.1793 28.5869C42.109 28.4517 42.0441 28.3166 42.109 28.1112L44.9036 15.1544H40.4063C40.2008 15.1544 40.0657 15.0842 39.9954 14.949C39.9252 14.8139 39.8603 14.6788 39.9252 14.4734L40.5414 11.8139C40.6117 11.6085 40.6765 11.4734 40.8117 11.3382C40.9468 11.2031 41.1522 11.1328 41.2873 11.1328H54.8551C55.0605 11.1328 55.1956 11.2031 55.2659 11.3382C55.3362 11.4085 55.3362 11.5436 55.3362 11.6085C55.3362 11.6734 55.3362 11.6788 55.3362 11.7436L54.7199 14.4031C54.7199 14.6085 54.5848 14.7436 54.4497 14.8788C54.3145 15.0139 54.1794 15.0842 53.974 15.0842H49.4766L46.682 28.0409C46.6117 28.2463 46.5469 28.3815 46.4117 28.5166C46.2766 28.6517 46.0712 28.722 45.9361 28.722H42.5955V28.7923H42.5901Z" fill="#FBFCFF"/>
<path d="M55.9512 28.7923C55.7458 28.7923 55.6106 28.722 55.5404 28.5869C55.4701 28.4517 55.4052 28.3166 55.4701 28.1112L59.0161 11.8139C59.0161 11.6085 59.1512 11.4734 59.2864 11.3382C59.4215 11.2031 59.6269 11.1328 59.762 11.1328H63.1729C63.3783 11.1328 63.5134 11.2031 63.5837 11.3382C63.654 11.4085 63.654 11.5436 63.654 11.6085C63.654 11.6734 63.654 11.6788 63.654 11.7436L60.1783 28.0409C60.1783 28.2463 60.0431 28.3815 59.908 28.5166C59.7728 28.6517 59.5674 28.722 59.4323 28.722H56.0215L55.9512 28.7923Z" fill="#FBFCFF"/>
<path d="M65.6328 28.7942C65.4274 28.7942 65.2923 28.7239 65.222 28.5888C65.1517 28.4536 65.0869 28.3185 65.1517 28.1131L68.6275 11.8158C68.6275 11.6104 68.7626 11.4753 68.8977 11.3401C69.0329 11.205 69.2383 11.1347 69.3734 11.1347H72.1032C72.514 11.1347 72.7843 11.3401 72.8545 11.6807L75.5843 19.5888L81.7195 11.6807C81.7898 11.5455 81.9249 11.4104 82.06 11.2699C82.1952 11.1293 82.4006 11.0645 82.6763 11.0645H85.406C85.6114 11.0645 85.7466 11.1347 85.8168 11.2699C85.8871 11.3401 85.8871 11.4753 85.8871 11.5401C85.8871 11.605 85.8871 11.6104 85.8871 11.6753L82.4114 27.9726C82.4114 28.178 82.2763 28.3131 82.1411 28.4482C82.006 28.5834 81.8006 28.6536 81.6654 28.6536H78.5951C78.3897 28.6536 78.2546 28.5834 78.1843 28.4482C78.114 28.3131 78.0492 28.178 78.1141 27.9726L80.0925 18.7672L76.2059 23.8807C76.0708 24.0861 75.8654 24.2212 75.7302 24.2915C75.5951 24.3618 75.3897 24.4266 75.1843 24.4266H73.887C73.5464 24.4266 73.2708 24.2212 73.1356 23.8807L71.3626 18.5672L69.3193 28.0428C69.2491 28.2482 69.1842 28.3834 69.0491 28.5185C68.9139 28.6536 68.7085 28.7239 68.5734 28.7239H65.5734L65.6328 28.7942Z" fill="#FBFCFF"/>
<path d="M87.9316 28.7923C87.7262 28.7923 87.5911 28.722 87.5208 28.5869C87.4506 28.4517 87.3857 28.3166 87.4506 28.1112L90.9965 11.8139C91.0668 11.6085 91.1317 11.4734 91.2668 11.3382C91.402 11.2031 91.6074 11.1328 91.7425 11.1328H95.1534C95.3588 11.1328 95.4939 11.2031 95.5642 11.3382C95.6344 11.4085 95.6344 11.5436 95.6344 11.6085C95.6344 11.6734 95.6344 11.6788 95.6344 11.7436L92.1587 28.0409C92.1587 28.2463 92.0236 28.3815 91.8885 28.5166C91.7533 28.6517 91.5479 28.722 91.4128 28.722H88.0019L87.9316 28.7923Z" fill="#FBFCFF"/>
<path d="M103.747 28.9965C102.249 28.9965 101.017 28.7911 99.9305 28.3803C98.9089 27.9695 98.0872 27.4235 97.5467 26.8127C97.0007 26.1316 96.7305 25.3803 96.7305 24.5641C96.7305 24.4289 96.7305 24.2235 96.8007 23.9479C96.871 23.8127 96.9359 23.6776 97.0061 23.537C97.1413 23.4668 97.2764 23.4019 97.417 23.4019H100.622C100.828 23.4019 100.963 23.4019 101.098 23.4722C101.233 23.5425 101.303 23.6776 101.439 23.8127C101.574 24.2235 101.849 24.6289 102.255 24.9046C102.66 25.1803 103.276 25.3154 104.028 25.3154C104.985 25.3154 105.731 25.1803 106.347 24.8397C106.963 24.5695 107.304 24.1587 107.439 23.6127C107.439 23.5424 107.439 23.4776 107.439 23.3425C107.439 22.9316 107.168 22.5911 106.687 22.3857C106.141 22.1154 105.19 21.8397 103.822 21.4992C102.185 21.1587 100.958 20.6127 100.141 19.9316C99.3251 19.1803 98.844 18.2938 98.844 17.137C98.844 16.7262 98.9143 16.3208 98.9791 15.91C99.3197 14.3425 100.136 13.1154 101.503 12.2289C102.871 11.3425 104.574 10.9316 106.687 10.9316C107.985 10.9316 109.071 11.137 110.098 11.6127C111.125 12.0884 111.871 12.6343 112.417 13.3154C112.963 13.9965 113.233 14.6776 113.233 15.3587C113.233 15.5641 113.233 15.6992 113.233 15.7695C113.233 15.9046 113.098 16.0397 113.028 16.1803C112.958 16.2506 112.823 16.3154 112.617 16.3154H109.201C108.86 16.3154 108.585 16.1803 108.45 15.9046C108.45 15.4938 108.244 15.2235 107.833 14.9479C107.422 14.6722 106.947 14.537 106.336 14.537C105.585 14.537 104.974 14.6722 104.493 14.9479C104.012 15.2235 103.741 15.6289 103.606 16.1046C103.606 16.1749 103.606 16.31 103.606 16.4452C103.606 16.856 103.812 17.1965 104.287 17.4668C104.763 17.737 105.649 17.9425 106.812 18.2181C108.72 18.5587 110.082 19.1046 110.904 19.7857C111.79 20.4668 112.201 21.3533 112.201 22.5154C112.201 22.9262 112.131 23.3316 112.066 23.7425C111.725 25.4452 110.768 26.7425 109.336 27.6289C107.904 28.5154 105.995 28.9262 103.676 28.9262L103.747 28.9965Z" fill="#FBFCFF"/>
<path d="M115.682 28.7942C115.476 28.7942 115.341 28.7239 115.271 28.5888C115.201 28.4536 115.136 28.3185 115.201 28.1131L118.676 11.8158C118.676 11.6104 118.811 11.4753 118.947 11.3401C119.082 11.205 119.287 11.1347 119.422 11.1347H122.152C122.563 11.1347 122.833 11.3401 122.903 11.6807L125.633 19.5888L131.768 11.6807C131.839 11.5455 131.974 11.4104 132.109 11.2699C132.244 11.1293 132.449 11.0645 132.725 11.0645H135.455C135.66 11.0645 135.795 11.1347 135.866 11.2699C135.936 11.3401 135.936 11.4753 135.936 11.5401C135.936 11.605 135.936 11.6104 135.936 11.6753L132.46 27.9726C132.39 28.178 132.325 28.3131 132.19 28.4482C132.055 28.5834 131.849 28.6536 131.714 28.6536H128.644C128.439 28.6536 128.303 28.5834 128.233 28.4482C128.163 28.3131 128.098 28.178 128.163 27.9726L130.141 18.7672L126.255 23.8807C126.12 24.0861 125.914 24.2212 125.779 24.2915C125.644 24.3618 125.439 24.4266 125.233 24.4266H123.936C123.595 24.4266 123.32 24.2212 123.184 23.8807L121.411 18.5618L119.363 28.0428C119.293 28.2482 119.228 28.3834 119.093 28.5185C118.957 28.6536 118.752 28.7239 118.617 28.7239H115.617L115.682 28.7942Z" fill="#FBFCFF"/>
</g>
<defs>
<clipPath id="clip0_262_2330">
<rect width="135.137" height="18" fill="white" transform="translate(0.929688 11)"/>
</clipPath>
</defs>
</svg>
